<mxfile host="app.diagrams.net" agent="Mozilla/5.0 (Windows NT 10.0; Win64; x64) AppleWebKit/537.36 (KHTML, like Gecko) Chrome/138.0.0.0 Safari/537.36" version="27.1.4">
  <diagram name="AWS Docker Architektur" id="voQpjpwVp5ayt2qQBgge">
    <mxGraphModel dx="3144" dy="2837" grid="1" gridSize="10" guides="1" tooltips="1" connect="1" arrows="0" fold="1" page="1" pageScale="1" pageWidth="827" pageHeight="1169" math="0" shadow="0">
      <root>
        <mxCell id="0" />
        <mxCell id="1" parent="0" />
        <mxCell id="m6GLD5GbrDwXI87dzclv-23" value="" style="whiteSpace=wrap;html=1;aspect=fixed;fillColor=#f9f7ed;strokeColor=#36393d;" vertex="1" parent="1">
          <mxGeometry x="20" y="-250" width="1890" height="1890" as="geometry" />
        </mxCell>
        <mxCell id="m6GLD5GbrDwXI87dzclv-20" value="" style="endArrow=classic;html=1;rounded=0;exitX=0.088;exitY=0.504;exitDx=0;exitDy=0;exitPerimeter=0;entryX=1;entryY=0.5;entryDx=0;entryDy=0;" edge="1" parent="1" source="7XOEn1u5nRi5RlS6eYAb-1" target="7XOEn1u5nRi5RlS6eYAb-9">
          <mxGeometry width="50" height="50" relative="1" as="geometry">
            <mxPoint x="690" y="180" as="sourcePoint" />
            <mxPoint x="740" y="130" as="targetPoint" />
          </mxGeometry>
        </mxCell>
        <mxCell id="m6GLD5GbrDwXI87dzclv-22" value="" style="shape=flexArrow;endArrow=classic;html=1;rounded=0;width=44.28571428571429;endSize=20.614285714285714;exitX=0.5;exitY=1;exitDx=0;exitDy=0;endWidth=52.244897959183675;fillColor=light-dark(#FFFFFF,#FFFFFF);" edge="1" parent="1">
          <mxGeometry width="50" height="50" relative="1" as="geometry">
            <mxPoint x="966.8204378646861" y="-60" as="sourcePoint" />
            <mxPoint x="967" y="110" as="targetPoint" />
            <Array as="points">
              <mxPoint x="966.66" y="13.926753443585085" />
            </Array>
          </mxGeometry>
        </mxCell>
        <mxCell id="7XOEn1u5nRi5RlS6eYAb-1" value="" style="shape=mxgraph.networks2.icon;aspect=fixed;fillColor=#EDEDED;strokeColor=#000000;gradientColor=#5B6163;network2IconShadow=1;network2bgFillColor=none;network2Icon=mxgraph.networks2.pc;network2IconYOffset=-0.0593;network2IconW=0.9999;network2IconH=0.7096;fontSize=13;" parent="1" vertex="1">
          <mxGeometry x="1280" y="-170.14" width="109.99" height="78.06" as="geometry" />
        </mxCell>
        <mxCell id="7XOEn1u5nRi5RlS6eYAb-9" value="&lt;font style=&quot;color: light-dark(rgb(255, 255, 255), rgb(255, 255, 255));&quot;&gt;Web&lt;br&gt;&lt;span style=&quot;text-wrap-mode: wrap;&quot;&gt;&lt;font style=&quot;&quot;&gt;&lt;font style=&quot;&quot;&gt;c&lt;/font&gt;ms.yenulprojekt.ch&lt;/font&gt;&lt;/span&gt;&lt;/font&gt;" style="shape=mxgraph.office.devices.pc;html=1;fillColor=#647687;fontColor=#ffffff;strokeColor=#314354;" parent="1" vertex="1">
          <mxGeometry x="900" y="-180" width="134.99" height="97.78" as="geometry" />
        </mxCell>
        <mxCell id="7XOEn1u5nRi5RlS6eYAb-7" value="Subnetz" style="text;html=1;align=center;verticalAlign=middle;resizable=0;points=[];autosize=1;strokeColor=none;fillColor=none;" parent="1" vertex="1">
          <mxGeometry x="320.01" y="230" width="70" height="30" as="geometry" />
        </mxCell>
        <mxCell id="7XOEn1u5nRi5RlS6eYAb-8" value="" style="whiteSpace=wrap;html=1;aspect=fixed;fillColor=#0050ef;fontColor=#ffffff;strokeColor=#001DBC;" parent="1" vertex="1">
          <mxGeometry x="274.99" y="280" width="160" height="160" as="geometry" />
        </mxCell>
        <mxCell id="7XOEn1u5nRi5RlS6eYAb-10" value="&lt;span&gt;VPC&lt;/span&gt;" style="rounded=1;whiteSpace=wrap;html=1;fillColor=#647687;fontColor=#ffffff;arcSize=13;strokeColor=#314354;" parent="1" vertex="1">
          <mxGeometry x="130" y="120" width="1610" height="1270" as="geometry" />
        </mxCell>
        <mxCell id="7XOEn1u5nRi5RlS6eYAb-11" value="Subnetz" style="rounded=1;whiteSpace=wrap;html=1;fillColor=#003366;fontColor=#FFFFFF;arcSize=8;" parent="7XOEn1u5nRi5RlS6eYAb-10" vertex="1">
          <mxGeometry x="71.83" y="80" width="1466.33" height="1093.9" as="geometry" />
        </mxCell>
        <mxCell id="7XOEn1u5nRi5RlS6eYAb-12" value="" style="rounded=1;whiteSpace=wrap;html=1;fillColor=#0099CC;fontColor=#FFFFFF;arcSize=10;" parent="7XOEn1u5nRi5RlS6eYAb-11" vertex="1">
          <mxGeometry x="118.44254658800327" y="84.18922146607778" width="1284.144630387913" height="925.5215570678447" as="geometry" />
        </mxCell>
        <mxCell id="7XOEn1u5nRi5RlS6eYAb-93" value="" style="rounded=1;whiteSpace=wrap;html=1;fillColor=#66CCFF;fontColor=#000000;" parent="7XOEn1u5nRi5RlS6eYAb-11" vertex="1">
          <mxGeometry x="847.2607427412095" y="579.5754051081323" width="469.75194852641033" height="361.47474015420903" as="geometry" />
        </mxCell>
        <mxCell id="7XOEn1u5nRi5RlS6eYAb-96" value="Apache + PhpMyAdmin&lt;div&gt;Port: 8080 oder 80&lt;/div&gt;" style="rounded=1;whiteSpace=wrap;html=1;fillColor=#FFDDCC;" parent="7XOEn1u5nRi5RlS6eYAb-93" vertex="1">
          <mxGeometry x="173.0692279391229" y="220.42587159184154" width="123.61893382273959" height="55.61149848526291" as="geometry" />
        </mxCell>
        <mxCell id="7XOEn1u5nRi5RlS6eYAb-104" value="EC2: PhpMyAdmin" style="rounded=1;whiteSpace=wrap;html=1;fillColor=#FFFFFF;" parent="7XOEn1u5nRi5RlS6eYAb-93" vertex="1">
          <mxGeometry x="135.98082720501353" y="13.902874621315728" width="197.79029411638328" height="55.61149848526291" as="geometry" />
        </mxCell>
        <mxCell id="7XOEn1u5nRi5RlS6eYAb-105" value="EC2 Ubuntu: &lt;span style=&quot;text-wrap-mode: nowrap;&quot;&gt;admin&lt;/span&gt;&lt;br&gt;&lt;span style=&quot;text-wrap-mode: nowrap;&quot;&gt;52.201.74.50&lt;/span&gt;" style="text;html=1;align=center;verticalAlign=middle;whiteSpace=wrap;rounded=0;" parent="7XOEn1u5nRi5RlS6eYAb-93" vertex="1">
          <mxGeometry x="154.52366727842454" y="305.86324166894605" width="160.70461396956145" height="41.70862386394719" as="geometry" />
        </mxCell>
        <mxCell id="7XOEn1u5nRi5RlS6eYAb-106" value="" style="shape=image;html=1;verticalAlign=top;verticalLabelPosition=bottom;labelBackgroundColor=#ffffff;imageAspect=0;aspect=fixed;image=https://cdn1.iconfinder.com/data/icons/operating-system-flat-1/30/ubuntu-128.png" parent="7XOEn1u5nRi5RlS6eYAb-93" vertex="1">
          <mxGeometry x="107.54847242578343" y="308.6438165932091" width="34.66938767724825" height="34.66938767724825" as="geometry" />
        </mxCell>
        <mxCell id="m6GLD5GbrDwXI87dzclv-13" value="" style="shape=flexArrow;endArrow=classic;html=1;rounded=0;width=44.28571428571429;endSize=20.614285714285714;exitX=0.5;exitY=1;exitDx=0;exitDy=0;entryX=0.5;entryY=0;entryDx=0;entryDy=0;endWidth=52.244897959183675;fillColor=light-dark(#FFFFFF,#FFFFFF);" edge="1" parent="7XOEn1u5nRi5RlS6eYAb-93">
          <mxGeometry width="50" height="50" relative="1" as="geometry">
            <mxPoint x="234.32969512347677" y="69.51459489186777" as="sourcePoint" />
            <mxPoint x="234.32969512347677" y="203.51459489186777" as="targetPoint" />
            <Array as="points">
              <mxPoint x="234.1692572587906" y="143.44134833545286" />
            </Array>
          </mxGeometry>
        </mxCell>
        <mxCell id="7XOEn1u5nRi5RlS6eYAb-107" value="&lt;span style=&quot;color: rgba(0, 0, 0, 0); font-family: monospace; font-size: 0px; text-align: start; text-wrap-mode: nowrap;&quot;&gt;%3CmxGraphModel%3E%3Croot%3E%3CmxCell%20id%3D%220%22%2F%3E%3CmxCell%20id%3D%221%22%20parent%3D%220%22%2F%3E%3CmxCell%20id%3D%222%22%20value%3D%22%22%20style%3D%22shape%3DflexArrow%3BendArrow%3Dclassic%3Bhtml%3D1%3Brounded%3D0%3Bwidth%3D44.28571428571429%3BendSize%3D20.614285714285714%3BexitX%3D0.5%3BexitY%3D1%3BexitDx%3D0%3BexitDy%3D0%3BentryX%3D0.5%3BentryY%3D0%3BentryDx%3D0%3BentryDy%3D0%3BendWidth%3D52.244897959183675%3B%22%20edge%3D%221%22%20parent%3D%221%22%3E%3CmxGeometry%20width%3D%2250%22%20height%3D%2250%22%20relative%3D%221%22%20as%3D%22geometry%22%3E%3CmxPoint%20x%3D%22997.1604378646862%22%20y%3D%22416.07324655641486%22%20as%3D%22sourcePoint%22%2F%3E%3CmxPoint%20x%3D%22997.1604378646862%22%20y%3D%22550.0732465564149%22%20as%3D%22targetPoint%22%2F%3E%3CArray%20as%3D%22points%22%3E%3CmxPoint%20x%3D%22997%22%20y%3D%22490%22%2F%3E%3C%2FArray%3E%3C%2FmxGeometry%3E%3C%2FmxCell%3E%3C%2Froot%3E%3C%2FmxGraphModel%3E&lt;/span&gt;" style="rounded=1;whiteSpace=wrap;html=1;fillColor=#66CCFF;fontColor=#000000;" parent="7XOEn1u5nRi5RlS6eYAb-11" vertex="1">
          <mxGeometry x="273.40013298816285" y="579.5754051081323" width="469.75194852641033" height="361.47474015420903" as="geometry" />
        </mxCell>
        <mxCell id="7XOEn1u5nRi5RlS6eYAb-110" value="MariaDB&#xa;Port: 3306" style="rounded=1;whiteSpace=wrap;html=1;fillColor=#FFDDCC;" parent="7XOEn1u5nRi5RlS6eYAb-107" vertex="1">
          <mxGeometry x="173.0692279391229" y="220.42587159184154" width="123.61893382273959" height="55.61149848526291" as="geometry" />
        </mxCell>
        <mxCell id="7XOEn1u5nRi5RlS6eYAb-118" value="EC2: Mariadb" style="rounded=1;whiteSpace=wrap;html=1;fillColor=#FFFFFF;" parent="7XOEn1u5nRi5RlS6eYAb-107" vertex="1">
          <mxGeometry x="135.98082720501353" y="13.902874621315728" width="197.79029411638328" height="55.61149848526291" as="geometry" />
        </mxCell>
        <mxCell id="7XOEn1u5nRi5RlS6eYAb-119" value="EC2 Ubuntu:&amp;nbsp;db-server&lt;br&gt;34.225.69.78" style="text;html=1;align=center;verticalAlign=middle;whiteSpace=wrap;rounded=0;" parent="7XOEn1u5nRi5RlS6eYAb-107" vertex="1">
          <mxGeometry x="154.52366727842454" y="305.86324166894605" width="160.70461396956145" height="41.70862386394719" as="geometry" />
        </mxCell>
        <mxCell id="7XOEn1u5nRi5RlS6eYAb-120" value="" style="shape=image;html=1;verticalAlign=top;verticalLabelPosition=bottom;labelBackgroundColor=#ffffff;imageAspect=0;aspect=fixed;image=https://cdn1.iconfinder.com/data/icons/operating-system-flat-1/30/ubuntu-128.png" parent="7XOEn1u5nRi5RlS6eYAb-107" vertex="1">
          <mxGeometry x="107.54847242578343" y="308.6438165932091" width="34.66938767724825" height="34.66938767724825" as="geometry" />
        </mxCell>
        <mxCell id="m6GLD5GbrDwXI87dzclv-9" value="" style="shape=flexArrow;endArrow=classic;html=1;rounded=0;width=44.28571428571429;endSize=20.614285714285714;exitX=0.5;exitY=1;exitDx=0;exitDy=0;entryX=0.5;entryY=0;entryDx=0;entryDy=0;endWidth=52.244897959183675;fillColor=light-dark(#FFFFFF,#FFFFFF);" edge="1" parent="7XOEn1u5nRi5RlS6eYAb-107">
          <mxGeometry width="50" height="50" relative="1" as="geometry">
            <mxPoint x="234.32030487652332" y="69.51459489186777" as="sourcePoint" />
            <mxPoint x="234.32030487652332" y="203.51459489186777" as="targetPoint" />
            <Array as="points">
              <mxPoint x="234.15986701183715" y="143.44134833545286" />
            </Array>
          </mxGeometry>
        </mxCell>
        <mxCell id="7XOEn1u5nRi5RlS6eYAb-121" value="&lt;span style=&quot;color: rgba(0, 0, 0, 0); font-family: monospace; font-size: 0px; text-align: start; text-wrap-mode: nowrap;&quot;&gt;%3CmxGraphModel%3E%3Croot%3E%3CmxCell%20id%3D%220%22%2F%3E%3CmxCell%20id%3D%221%22%20parent%3D%220%22%2F%3E%3CmxCell%20id%3D%222%22%20value%3D%22%22%20style%3D%22shape%3DflexArrow%3BendArrow%3Dclassic%3Bhtml%3D1%3Brounded%3D0%3Bwidth%3D44.28571428571429%3BendSize%3D20.614285714285714%3BexitX%3D0.5%3BexitY%3D1%3BexitDx%3D0%3BexitDy%3D0%3BentryX%3D0.5%3BentryY%3D0%3BentryDx%3D0%3BentryDy%3D0%3BendWidth%3D52.244897959183675%3B%22%20edge%3D%221%22%20parent%3D%221%22%3E%3CmxGeometry%20width%3D%2250%22%20height%3D%2250%22%20relative%3D%221%22%20as%3D%22geometry%22%3E%3CmxPoint%20x%3D%22997.1604378646862%22%20y%3D%22416.07324655641486%22%20as%3D%22sourcePoint%22%2F%3E%3CmxPoint%20x%3D%22997.1604378646862%22%20y%3D%22550.0732465564149%22%20as%3D%22targetPoint%22%2F%3E%3CArray%20as%3D%22points%22%3E%3CmxPoint%20x%3D%22997%22%20y%3D%22490%22%2F%3E%3C%2FArray%3E%3C%2FmxGeometry%3E%3C%2FmxCell%3E%3C%2Froot%3E%3C%2FmxGraphModel%3E&lt;/span&gt;" style="rounded=1;whiteSpace=wrap;html=1;fillColor=#66CCFF;fontColor=#000000;" parent="7XOEn1u5nRi5RlS6eYAb-11" vertex="1">
          <mxGeometry x="560.3304378646861" y="146.07324655641486" width="469.75194852641033" height="361.47474015420903" as="geometry" />
        </mxCell>
        <mxCell id="7XOEn1u5nRi5RlS6eYAb-123" value="Apache2&lt;br&gt;Port: 80/443" style="rounded=1;whiteSpace=wrap;html=1;fillColor=#FFDDCC;" parent="7XOEn1u5nRi5RlS6eYAb-121" vertex="1">
          <mxGeometry x="24.72378676454791" y="223.92587159184154" width="123.61893382273959" height="55.61149848526291" as="geometry" />
        </mxCell>
        <mxCell id="7XOEn1u5nRi5RlS6eYAb-124" value="Wordpress" style="rounded=1;whiteSpace=wrap;html=1;fillColor=#FFDDCC;" parent="7XOEn1u5nRi5RlS6eYAb-121" vertex="1">
          <mxGeometry x="321.4092279391229" y="223.92587159184154" width="123.61893382273959" height="55.61149848526291" as="geometry" />
        </mxCell>
        <mxCell id="7XOEn1u5nRi5RlS6eYAb-126" value="PHP&#xa;Port: -" style="rounded=1;whiteSpace=wrap;html=1;fillColor=#FFFFFF;" parent="7XOEn1u5nRi5RlS6eYAb-121" vertex="1">
          <mxGeometry x="173.06650735183536" y="223.92587159184154" width="123.61893382273959" height="55.61149848526291" as="geometry" />
        </mxCell>
        <mxCell id="7XOEn1u5nRi5RlS6eYAb-132" value="EC2: Webserver" style="rounded=1;whiteSpace=wrap;html=1;fillColor=#FFFFFF;" parent="7XOEn1u5nRi5RlS6eYAb-121" vertex="1">
          <mxGeometry x="135.98082720501353" y="13.902874621315728" width="197.79029411638328" height="55.61149848526291" as="geometry" />
        </mxCell>
        <mxCell id="7XOEn1u5nRi5RlS6eYAb-133" value="EC2 Ubuntu:&amp;nbsp;wp-server:&lt;br&gt;54.166.7.177" style="text;html=1;align=center;verticalAlign=middle;whiteSpace=wrap;rounded=0;" parent="7XOEn1u5nRi5RlS6eYAb-121" vertex="1">
          <mxGeometry x="154.52366727842454" y="306.86324166894605" width="160.70461396956145" height="41.70862386394719" as="geometry" />
        </mxCell>
        <mxCell id="7XOEn1u5nRi5RlS6eYAb-134" value="" style="shape=image;html=1;verticalAlign=top;verticalLabelPosition=bottom;labelBackgroundColor=#ffffff;imageAspect=0;aspect=fixed;image=https://cdn1.iconfinder.com/data/icons/operating-system-flat-1/30/ubuntu-128.png" parent="7XOEn1u5nRi5RlS6eYAb-121" vertex="1">
          <mxGeometry x="107.54847242578343" y="308.6438165932091" width="34.66938767724825" height="34.66938767724825" as="geometry" />
        </mxCell>
        <mxCell id="m6GLD5GbrDwXI87dzclv-10" value="" style="shape=flexArrow;endArrow=classic;html=1;rounded=0;width=44.28571428571429;endSize=20.614285714285714;exitX=0.5;exitY=1;exitDx=0;exitDy=0;entryX=0.5;entryY=0;entryDx=0;entryDy=0;endWidth=52.244897959183675;fillColor=light-dark(#FFFFFF,#FFFFFF);" edge="1" parent="7XOEn1u5nRi5RlS6eYAb-121">
          <mxGeometry width="50" height="50" relative="1" as="geometry">
            <mxPoint x="234.32000000000005" y="69.92675344358514" as="sourcePoint" />
            <mxPoint x="234.32000000000005" y="203.92675344358514" as="targetPoint" />
            <Array as="points">
              <mxPoint x="234.15956213531388" y="143.85350688717023" />
            </Array>
          </mxGeometry>
        </mxCell>
        <mxCell id="m6GLD5GbrDwXI87dzclv-17" value="&amp;nbsp; Netzwerk (VPC / sg-wp-access)" style="text;html=1;align=center;verticalAlign=middle;whiteSpace=wrap;rounded=0;fontColor=light-dark(#000000,#000000);fontSize=18;fontStyle=1" vertex="1" parent="7XOEn1u5nRi5RlS6eYAb-11">
          <mxGeometry x="570" y="30" width="420" height="30" as="geometry" />
        </mxCell>
        <mxCell id="m6GLD5GbrDwXI87dzclv-18" value="&lt;font style=&quot;color: light-dark(rgb(255, 255, 255), rgb(255, 255, 255));&quot;&gt;DNS: cms.yenulprojekt.ch&lt;/font&gt;" style="text;html=1;align=center;verticalAlign=middle;whiteSpace=wrap;rounded=0;fontColor=light-dark(#000000,#000000);fontSize=18;fontStyle=1" vertex="1" parent="7XOEn1u5nRi5RlS6eYAb-10">
          <mxGeometry x="640" y="30" width="420" height="30" as="geometry" />
        </mxCell>
      </root>
    </mxGraphModel>
  </diagram>
</mxfile>
